<?xml version="1.0" encoding="utf-8"?>
<!-- Generator: Adobe Illustrator 26.0.1, SVG Export Plug-In . SVG Version: 6.00 Build 0)  -->
<svg version="1.1" id="Capa_1" xmlns="http://www.w3.org/2000/svg" xmlns:xlink="http://www.w3.org/1999/xlink" x="0px" y="0px"
	 viewBox="0 0 37 37" style="enable-background:new 0 0 37 37;" xml:space="preserve">
<style type="text/css">
	.st0{fill:#2E84BE;}
	.st1{fill:#FFFFFF;}
	.st2{fill:#20B5B7;}
</style>
<g>
	<path class="st0" d="M33.7,37l0.9-2.1L33.4,7.5h-7.9c-1-4.4-3.4-7.5-6.3-7.5c-2.9,0-5.4,3.1-6.3,7.5H5.3l-1.9,28L4.6,37L33.7,37
		L33.7,37z M23.3,11.7c0,0.7,0.6,1.3,1.3,1.3c0.7,0,1.3-0.6,1.3-1.3c0-0.2,0-0.4,0-0.6c0.5,0.4,0.8,1,0.8,1.6c0,1.1-0.9,2.1-2.1,2.1
		c-1.1,0-2.1-0.9-2.1-2.1c0-0.6,0.3-1.2,0.7-1.5C23.3,11.3,23.3,11.5,23.3,11.7z M19.2,2.6c1.4,0,2.9,1.9,3.6,4.8h-7.2
		C16.4,4.5,17.9,2.6,19.2,2.6z M12.5,11.1c0,0.2,0,0.4,0,0.6c0,0.7,0.6,1.3,1.3,1.3c0.7,0,1.3-0.6,1.3-1.3c0-0.2,0-0.4,0-0.6
		c0.5,0.4,0.8,1,0.8,1.6c0,1.1-0.9,2.1-2.1,2.1c-1.1,0-2.1-0.9-2.1-2.1C11.8,12.1,12.1,11.5,12.5,11.1z"/>
</g>
<circle class="st1" cx="19" cy="25.2" r="9"/>
<g>
	<g>
		<g>
			<path class="st2" d="M18.3,17.5c-1.7,0.2-3.4,0.9-4.7,2.2c-1.3,1.3-2.1,3-2.2,4.7c1.9,0.2,3.9,1.2,5.5,2.8
				c1.6,1.6,2.6,3.6,2.8,5.5c1.7-0.2,3.4-0.9,4.7-2.2c1.3-1.3,2.1-3,2.2-4.7c-1.9-0.2-3.9-1.2-5.5-2.8
				C19.4,21.4,18.5,19.4,18.3,17.5z"/>
			<path class="st2" d="M26.6,24.9c-0.1-1.9-0.8-3.8-2.2-5.2c-1.4-1.4-3.3-2.2-5.2-2.2c0.2,1.6,1.1,3.4,2.6,4.9S25,24.7,26.6,24.9z"
				/>
			<path class="st2" d="M11.3,25.4c0.1,1.9,0.8,3.8,2.2,5.2c1.4,1.4,3.3,2.2,5.2,2.2c-0.2-1.6-1.1-3.4-2.6-4.9
				C14.7,26.5,13,25.6,11.3,25.4z"/>
		</g>
	</g>
</g>
</svg>
